<svg width="256" height="256" viewBox="0 0 256 256" fill="none" xmlns="http://www.w3.org/2000/svg">
<path d="M211.552 0H44.4482C19.9001 0 0 19.9002 0 44.4482V211.552C0 236.1 19.9001 256 44.4482 256H211.552C236.1 256 256 236.1 256 211.552V44.4482C256 19.9002 236.1 0 211.552 0Z" fill="#1E173E"/>
<path d="M155.489 74.3081L128.003 115.603L100.386 74.3081H75.1983V181.706H97.1912V104.61L126.982 149.872H128.901L158.816 104.61V134.601H180.809V74.3081H155.496H155.489Z" fill="#DBDDE5"/>
<path d="M185.681 147.864C181.45 143.841 176.157 141.936 169.388 141.936C163.039 141.936 157.746 144.055 153.302 148.071C149.072 152.094 146.953 157.173 146.953 163.308C146.953 169.443 149.072 174.736 153.302 178.759C157.746 182.782 163.039 184.894 169.388 184.894C176.157 184.894 181.45 182.775 185.681 178.759C189.911 174.736 192.029 169.45 192.029 163.308C192.029 157.166 189.911 151.88 185.681 147.857V147.864Z" fill="#FF9F45"/>
</svg>
